<mxfile host="app.diagrams.net" modified="2024-07-01T12:15:04.858Z" agent="Mozilla/5.0 (Windows NT 10.0; Win64; x64) AppleWebKit/537.36 (KHTML, like Gecko) Chrome/126.0.0.0 Safari/537.36" etag="3PM0ew0igaz9A4RcM09e" version="24.6.4" type="device">
  <diagram name="Page-1" id="Mqc5q-V1wXfSqb9qGKDT">
    <mxGraphModel dx="976" dy="705" grid="1" gridSize="10" guides="1" tooltips="1" connect="1" arrows="1" fold="1" page="1" pageScale="1" pageWidth="850" pageHeight="1100" math="0" shadow="0">
      <root>
        <mxCell id="0" />
        <mxCell id="1" parent="0" />
        <mxCell id="0Nfldidc3t7gY1FDv8Z6-14" value="Task Monitor" style="swimlane;whiteSpace=wrap;html=1;" vertex="1" parent="1">
          <mxGeometry x="40" y="260" width="690" height="390" as="geometry" />
        </mxCell>
      </root>
    </mxGraphModel>
  </diagram>
</mxfile>
